<svg width="32" height="34" viewBox="0 0 32 34" fill="none" xmlns="http://www.w3.org/2000/svg">
<rect x="-1.52588e-05" width="32" height="34" rx="16" fill="#FE6321"/>
<path d="M13.4 21.5L16 18.9L18.6 21.5L20 20.1L17.4 17.5L20 14.9L18.6 13.5L16 16.1L13.4 13.5L12 14.9L14.6 17.5L12 20.1L13.4 21.5ZM11 26C10.45 26 9.97932 25.8043 9.58798 25.413C9.19598 25.021 8.99998 24.55 8.99998 24V11H7.99998V9H13V8H19V9H24V11H23V24C23 24.55 22.8043 25.021 22.413 25.413C22.021 25.8043 21.55 26 21 26H11Z" fill="#F9F3EE"/>
</svg>
